<svg width="116" height="13" viewBox="0 0 116 13" fill="none" xmlns="http://www.w3.org/2000/svg">
<path d="M5.008 12.192C4.112 12.192 3.25333 12.0747 2.432 11.84C1.61067 11.5947 0.949333 11.28 0.448 10.896L1.328 8.944C1.808 9.28533 2.37333 9.568 3.024 9.792C3.68533 10.0053 4.352 10.112 5.024 10.112C5.536 10.112 5.94667 10.064 6.256 9.968C6.576 9.86133 6.81067 9.71733 6.96 9.536C7.10933 9.35467 7.184 9.14667 7.184 8.912C7.184 8.61333 7.06667 8.37867 6.832 8.208C6.59733 8.02667 6.288 7.88267 5.904 7.776C5.52 7.65867 5.09333 7.552 4.624 7.456C4.16533 7.34933 3.70133 7.22133 3.232 7.072C2.77333 6.92267 2.352 6.73067 1.968 6.496C1.584 6.26133 1.26933 5.952 1.024 5.568C0.789333 5.184 0.672 4.69333 0.672 4.096C0.672 3.456 0.842667 2.87467 1.184 2.352C1.536 1.81867 2.05867 1.39733 2.752 1.088C3.456 0.768 4.336 0.608 5.392 0.608C6.096 0.608 6.78933 0.693333 7.472 0.863999C8.15467 1.024 8.75733 1.26933 9.28 1.6L8.48 3.568C7.95733 3.26933 7.43467 3.05067 6.912 2.912C6.38933 2.76267 5.87733 2.688 5.376 2.688C4.87467 2.688 4.464 2.74667 4.144 2.864C3.824 2.98133 3.59467 3.136 3.456 3.328C3.31733 3.50933 3.248 3.72267 3.248 3.968C3.248 4.256 3.36533 4.49067 3.6 4.672C3.83467 4.84267 4.144 4.98133 4.528 5.088C4.912 5.19467 5.33333 5.30133 5.792 5.408C6.26133 5.51467 6.72533 5.63733 7.184 5.776C7.65333 5.91467 8.08 6.10133 8.464 6.336C8.848 6.57067 9.15733 6.88 9.392 7.264C9.63733 7.648 9.76 8.13333 9.76 8.72C9.76 9.34933 9.584 9.92533 9.232 10.448C8.88 10.9707 8.352 11.392 7.648 11.712C6.95467 12.032 6.07467 12.192 5.008 12.192ZM14.8751 12.128C13.8618 12.128 13.0725 11.872 12.5071 11.36C11.9418 10.8373 11.6591 10.064 11.6591 9.04V1.488H14.1551V9.008C14.1551 9.37067 14.2511 9.65333 14.4431 9.856C14.6351 10.048 14.8965 10.144 15.2271 10.144C15.6218 10.144 15.9578 10.0373 16.2351 9.824L16.9071 11.584C16.6511 11.7653 16.3418 11.904 15.9791 12C15.6271 12.0853 15.2591 12.128 14.8751 12.128ZM10.3311 5.504V3.584H16.2991V5.504H10.3311ZM18.3083 12V3.392H20.6923V5.824L20.3563 5.12C20.6123 4.512 21.0229 4.05333 21.5883 3.744C22.1536 3.424 22.8416 3.264 23.6523 3.264V5.568C23.5456 5.55733 23.4496 5.552 23.3643 5.552C23.2789 5.54133 23.1883 5.536 23.0923 5.536C22.4096 5.536 21.8549 5.73333 21.4283 6.128C21.0123 6.512 20.8043 7.11467 20.8043 7.936V12H18.3083ZM29.3459 12.128C28.3645 12.128 27.5005 11.936 26.7539 11.552C26.0179 11.168 25.4472 10.6453 25.0419 9.984C24.6365 9.312 24.4339 8.54933 24.4339 7.696C24.4339 6.832 24.6312 6.06933 25.0259 5.408C25.4312 4.736 25.9805 4.21333 26.6739 3.84C27.3672 3.456 28.1512 3.264 29.0259 3.264C29.8685 3.264 30.6259 3.44533 31.2979 3.808C31.9805 4.16 32.5192 4.672 32.9139 5.344C33.3085 6.00533 33.5059 6.8 33.5059 7.728C33.5059 7.824 33.5005 7.936 33.4899 8.064C33.4792 8.18133 33.4685 8.29333 33.4579 8.4H26.4659V6.944H32.1459L31.1859 7.376C31.1859 6.928 31.0952 6.53867 30.9139 6.208C30.7325 5.87733 30.4819 5.62133 30.1619 5.44C29.8419 5.248 29.4685 5.152 29.0419 5.152C28.6152 5.152 28.2365 5.248 27.9059 5.44C27.5859 5.62133 27.3352 5.88267 27.1539 6.224C26.9725 6.55467 26.8819 6.94933 26.8819 7.408V7.792C26.8819 8.26133 26.9832 8.67733 27.1859 9.04C27.3992 9.392 27.6925 9.664 28.0659 9.856C28.4499 10.0373 28.8979 10.128 29.4099 10.128C29.8685 10.128 30.2685 10.0587 30.6099 9.92C30.9619 9.78133 31.2819 9.57333 31.5699 9.296L32.8979 10.736C32.5032 11.184 32.0072 11.5307 31.4099 11.776C30.8125 12.0107 30.1245 12.128 29.3459 12.128ZM40.2133 12V10.32L40.0533 9.952V6.944C40.0533 6.41067 39.8879 5.99467 39.5573 5.696C39.2373 5.39733 38.7413 5.248 38.0693 5.248C37.6106 5.248 37.1573 5.32267 36.7093 5.472C36.2719 5.61067 35.8986 5.80267 35.5893 6.048L34.6933 4.304C35.1626 3.97333 35.7279 3.71733 36.3893 3.536C37.0506 3.35467 37.7226 3.264 38.4053 3.264C39.7173 3.264 40.7359 3.57333 41.4613 4.192C42.1866 4.81067 42.5493 5.776 42.5493 7.088V12H40.2133ZM37.5893 12.128C36.9173 12.128 36.3413 12.016 35.8613 11.792C35.3813 11.5573 35.0133 11.2427 34.7573 10.848C34.5013 10.4533 34.3733 10.0107 34.3733 9.52C34.3733 9.008 34.4959 8.56 34.7413 8.176C34.9973 7.792 35.3973 7.49333 35.9413 7.28C36.4853 7.056 37.1946 6.944 38.0693 6.944H40.3573V8.4H38.3413C37.7546 8.4 37.3493 8.496 37.1253 8.688C36.9119 8.88 36.8053 9.12 36.8053 9.408C36.8053 9.728 36.9279 9.984 37.1733 10.176C37.4293 10.3573 37.7759 10.448 38.2133 10.448C38.6293 10.448 39.0026 10.352 39.3333 10.16C39.6639 9.95733 39.9039 9.664 40.0533 9.28L40.4373 10.432C40.2559 10.9867 39.9253 11.408 39.4453 11.696C38.9653 11.984 38.3466 12.128 37.5893 12.128ZM55.8323 3.264C56.5149 3.264 57.1176 3.40267 57.6403 3.68C58.1736 3.94667 58.5896 4.36267 58.8883 4.928C59.1976 5.48267 59.3523 6.19733 59.3523 7.072V12H56.8563V7.456C56.8563 6.76267 56.7123 6.25067 56.4243 5.92C56.1363 5.58933 55.7309 5.424 55.2083 5.424C54.8456 5.424 54.5203 5.50933 54.2323 5.68C53.9443 5.84 53.7203 6.08533 53.5603 6.416C53.4003 6.74667 53.3203 7.168 53.3203 7.68V12H50.8243V7.456C50.8243 6.76267 50.6803 6.25067 50.3923 5.92C50.1149 5.58933 49.7149 5.424 49.1923 5.424C48.8296 5.424 48.5043 5.50933 48.2163 5.68C47.9283 5.84 47.7043 6.08533 47.5443 6.416C47.3843 6.74667 47.3043 7.168 47.3043 7.68V12H44.8083V3.392H47.1923V5.744L46.7443 5.056C47.0429 4.46933 47.4643 4.02667 48.0083 3.728C48.5629 3.41867 49.1923 3.264 49.8963 3.264C50.6856 3.264 51.3736 3.46667 51.9603 3.872C52.5576 4.26667 52.9523 4.87467 53.1443 5.696L52.2643 5.456C52.5523 4.784 53.0109 4.25067 53.6403 3.856C54.2803 3.46133 55.0109 3.264 55.8323 3.264ZM65.4455 12.192C64.5495 12.192 63.6908 12.0747 62.8695 11.84C62.0482 11.5947 61.3868 11.28 60.8855 10.896L61.7655 8.944C62.2455 9.28533 62.8108 9.568 63.4615 9.792C64.1228 10.0053 64.7895 10.112 65.4615 10.112C65.9735 10.112 66.3842 10.064 66.6935 9.968C67.0135 9.86133 67.2482 9.71733 67.3975 9.536C67.5468 9.35467 67.6215 9.14667 67.6215 8.912C67.6215 8.61333 67.5042 8.37867 67.2695 8.208C67.0348 8.02667 66.7255 7.88267 66.3415 7.776C65.9575 7.65867 65.5308 7.552 65.0615 7.456C64.6028 7.34933 64.1388 7.22133 63.6695 7.072C63.2108 6.92267 62.7895 6.73067 62.4055 6.496C62.0215 6.26133 61.7068 5.952 61.4615 5.568C61.2268 5.184 61.1095 4.69333 61.1095 4.096C61.1095 3.456 61.2802 2.87467 61.6215 2.352C61.9735 1.81867 62.4962 1.39733 63.1895 1.088C63.8935 0.768 64.7735 0.608 65.8295 0.608C66.5335 0.608 67.2268 0.693333 67.9095 0.863999C68.5922 1.024 69.1948 1.26933 69.7175 1.6L68.9175 3.568C68.3948 3.26933 67.8722 3.05067 67.3495 2.912C66.8268 2.76267 66.3148 2.688 65.8135 2.688C65.3122 2.688 64.9015 2.74667 64.5815 2.864C64.2615 2.98133 64.0322 3.136 63.8935 3.328C63.7548 3.50933 63.6855 3.72267 63.6855 3.968C63.6855 4.256 63.8028 4.49067 64.0375 4.672C64.2722 4.84267 64.5815 4.98133 64.9655 5.088C65.3495 5.19467 65.7708 5.30133 66.2295 5.408C66.6988 5.51467 67.1628 5.63733 67.6215 5.776C68.0908 5.91467 68.5175 6.10133 68.9015 6.336C69.2855 6.57067 69.5948 6.88 69.8295 7.264C70.0748 7.648 70.1975 8.13333 70.1975 8.72C70.1975 9.34933 70.0215 9.92533 69.6695 10.448C69.3175 10.9707 68.7895 11.392 68.0855 11.712C67.3922 12.032 66.5122 12.192 65.4455 12.192ZM75.9526 12.128C75.0246 12.128 74.198 11.9413 73.4726 11.568C72.7473 11.184 72.1766 10.656 71.7606 9.984C71.3553 9.312 71.1526 8.54933 71.1526 7.696C71.1526 6.832 71.3553 6.06933 71.7606 5.408C72.1766 4.736 72.7473 4.21333 73.4726 3.84C74.198 3.456 75.0246 3.264 75.9526 3.264C76.8593 3.264 77.6486 3.456 78.3206 3.84C78.9926 4.21333 79.4886 4.752 79.8086 5.456L77.8726 6.496C77.6486 6.09067 77.366 5.792 77.0246 5.6C76.694 5.408 76.3313 5.312 75.9366 5.312C75.51 5.312 75.126 5.408 74.7846 5.6C74.4433 5.792 74.1713 6.064 73.9686 6.416C73.7766 6.768 73.6806 7.19467 73.6806 7.696C73.6806 8.19733 73.7766 8.624 73.9686 8.976C74.1713 9.328 74.4433 9.6 74.7846 9.792C75.126 9.984 75.51 10.08 75.9366 10.08C76.3313 10.08 76.694 9.98933 77.0246 9.808C77.366 9.616 77.6486 9.312 77.8726 8.896L79.8086 9.952C79.4886 10.6453 78.9926 11.184 78.3206 11.568C77.6486 11.9413 76.8593 12.128 75.9526 12.128ZM86.4309 3.264C87.1135 3.264 87.7215 3.40267 88.2549 3.68C88.7989 3.94667 89.2255 4.36267 89.5349 4.928C89.8442 5.48267 89.9989 6.19733 89.9989 7.072V12H87.5029V7.456C87.5029 6.76267 87.3482 6.25067 87.0389 5.92C86.7402 5.58933 86.3135 5.424 85.7589 5.424C85.3642 5.424 85.0069 5.50933 84.6869 5.68C84.3775 5.84 84.1322 6.09067 83.9509 6.432C83.7802 6.77333 83.6949 7.21067 83.6949 7.744V12H81.1989V0.127999H83.6949V5.776L83.1349 5.056C83.4442 4.48 83.8869 4.03733 84.4629 3.728C85.0389 3.41867 85.6949 3.264 86.4309 3.264ZM96.4199 12.128C95.5025 12.128 94.6865 11.936 93.9719 11.552C93.2679 11.168 92.7079 10.6453 92.2919 9.984C91.8865 9.312 91.6839 8.54933 91.6839 7.696C91.6839 6.832 91.8865 6.06933 92.2919 5.408C92.7079 4.736 93.2679 4.21333 93.9719 3.84C94.6865 3.456 95.5025 3.264 96.4199 3.264C97.3265 3.264 98.1372 3.456 98.8519 3.84C99.5665 4.21333 100.127 4.73067 100.532 5.392C100.937 6.05333 101.14 6.82133 101.14 7.696C101.14 8.54933 100.937 9.312 100.532 9.984C100.127 10.6453 99.5665 11.168 98.8519 11.552C98.1372 11.936 97.3265 12.128 96.4199 12.128ZM96.4199 10.08C96.8359 10.08 97.2092 9.984 97.5399 9.792C97.8705 9.6 98.1319 9.328 98.3239 8.976C98.5159 8.61333 98.6119 8.18667 98.6119 7.696C98.6119 7.19467 98.5159 6.768 98.3239 6.416C98.1319 6.064 97.8705 5.792 97.5399 5.6C97.2092 5.408 96.8359 5.312 96.4199 5.312C96.0039 5.312 95.6305 5.408 95.2999 5.6C94.9692 5.792 94.7025 6.064 94.4999 6.416C94.3079 6.768 94.2119 7.19467 94.2119 7.696C94.2119 8.18667 94.3079 8.61333 94.4999 8.976C94.7025 9.328 94.9692 9.6 95.2999 9.792C95.6305 9.984 96.0039 10.08 96.4199 10.08ZM106.904 12.128C105.987 12.128 105.171 11.936 104.456 11.552C103.752 11.168 103.192 10.6453 102.776 9.984C102.371 9.312 102.168 8.54933 102.168 7.696C102.168 6.832 102.371 6.06933 102.776 5.408C103.192 4.736 103.752 4.21333 104.456 3.84C105.171 3.456 105.987 3.264 106.904 3.264C107.811 3.264 108.622 3.456 109.336 3.84C110.051 4.21333 110.611 4.73067 111.016 5.392C111.422 6.05333 111.624 6.82133 111.624 7.696C111.624 8.54933 111.422 9.312 111.016 9.984C110.611 10.6453 110.051 11.168 109.336 11.552C108.622 11.936 107.811 12.128 106.904 12.128ZM106.904 10.08C107.32 10.08 107.694 9.984 108.024 9.792C108.355 9.6 108.616 9.328 108.808 8.976C109 8.61333 109.096 8.18667 109.096 7.696C109.096 7.19467 109 6.768 108.808 6.416C108.616 6.064 108.355 5.792 108.024 5.6C107.694 5.408 107.32 5.312 106.904 5.312C106.488 5.312 106.115 5.408 105.784 5.6C105.454 5.792 105.187 6.064 104.984 6.416C104.792 6.768 104.696 7.19467 104.696 7.696C104.696 8.18667 104.792 8.61333 104.984 8.976C105.187 9.328 105.454 9.6 105.784 9.792C106.115 9.984 106.488 10.08 106.904 10.08ZM113.293 12V0.127999H115.789V12H113.293Z" fill="#15481F"/>
</svg>
